<mxfile host="app.diagrams.net" modified="2021-01-28T04:45:01.096Z" agent="5.0 (Windows NT 10.0; Win64; x64) AppleWebKit/537.36 (KHTML, like Gecko) Chrome/88.0.4324.96 Safari/537.36 Edg/88.0.705.50" etag="GpY5UBOWjXzstSrWE0GF" version="14.2.7" type="github" pages="2">
  <diagram id="foXiLQ0Hu5L10Me9TeH2" name="Features">
    <mxGraphModel dx="1038" dy="588" grid="1" gridSize="10" guides="1" tooltips="1" connect="1" arrows="1" fold="1" page="1" pageScale="1" pageWidth="850" pageHeight="1100" math="0" shadow="0">
      <root>
        <mxCell id="MCWdgLO1iPXOzNI1tE2P-0" />
        <mxCell id="MCWdgLO1iPXOzNI1tE2P-1" parent="MCWdgLO1iPXOzNI1tE2P-0" />
        <mxCell id="MCWdgLO1iPXOzNI1tE2P-2" value="&lt;font style=&quot;font-size: 20px&quot;&gt;Login&lt;/font&gt;" style="rounded=1;whiteSpace=wrap;html=1;shadow=0;glass=0;fillColor=none;gradientColor=#ffffff;" vertex="1" parent="MCWdgLO1iPXOzNI1tE2P-1">
          <mxGeometry x="40" y="40" width="200" height="30" as="geometry" />
        </mxCell>
        <mxCell id="MCWdgLO1iPXOzNI1tE2P-3" value="&lt;font style=&quot;font-size: 20px&quot;&gt;Logout&lt;/font&gt;" style="rounded=1;whiteSpace=wrap;html=1;shadow=0;glass=0;fillColor=none;gradientColor=#ffffff;" vertex="1" parent="MCWdgLO1iPXOzNI1tE2P-1">
          <mxGeometry x="40" y="80" width="200" height="30" as="geometry" />
        </mxCell>
        <mxCell id="MCWdgLO1iPXOzNI1tE2P-23" value="" style="edgeStyle=orthogonalEdgeStyle;rounded=0;orthogonalLoop=1;jettySize=auto;html=1;strokeColor=#FF0000;" edge="1" parent="MCWdgLO1iPXOzNI1tE2P-1" source="MCWdgLO1iPXOzNI1tE2P-4" target="MCWdgLO1iPXOzNI1tE2P-20">
          <mxGeometry relative="1" as="geometry" />
        </mxCell>
        <mxCell id="MCWdgLO1iPXOzNI1tE2P-4" value="&lt;font style=&quot;font-size: 20px&quot;&gt;&lt;b&gt;Input Validation&lt;/b&gt;&lt;/font&gt;" style="rounded=1;whiteSpace=wrap;html=1;shadow=0;glass=0;fillColor=none;gradientColor=#ffffff;" vertex="1" parent="MCWdgLO1iPXOzNI1tE2P-1">
          <mxGeometry x="280" y="390" width="320" height="50" as="geometry" />
        </mxCell>
        <mxCell id="MCWdgLO1iPXOzNI1tE2P-5" value="&lt;font style=&quot;font-size: 20px&quot;&gt;&lt;i&gt;&lt;b&gt;Image Upload&lt;/b&gt;&lt;/i&gt;&lt;/font&gt;" style="rounded=1;whiteSpace=wrap;html=1;shadow=0;glass=0;fillColor=none;gradientColor=#ffffff;" vertex="1" parent="MCWdgLO1iPXOzNI1tE2P-1">
          <mxGeometry x="280" y="510" width="320" height="60" as="geometry" />
        </mxCell>
        <mxCell id="MCWdgLO1iPXOzNI1tE2P-14" value="" style="edgeStyle=orthogonalEdgeStyle;rounded=0;orthogonalLoop=1;jettySize=auto;html=1;" edge="1" parent="MCWdgLO1iPXOzNI1tE2P-1" source="MCWdgLO1iPXOzNI1tE2P-6" target="MCWdgLO1iPXOzNI1tE2P-13">
          <mxGeometry relative="1" as="geometry" />
        </mxCell>
        <mxCell id="MCWdgLO1iPXOzNI1tE2P-6" value="&lt;span style=&quot;font-size: 20px&quot;&gt;&lt;b&gt;Account No. Auto Generated&lt;/b&gt;&lt;br&gt;&lt;/span&gt;" style="rounded=1;whiteSpace=wrap;html=1;shadow=0;glass=0;fillColor=none;gradientColor=#ffffff;" vertex="1" parent="MCWdgLO1iPXOzNI1tE2P-1">
          <mxGeometry x="280" y="330" width="320" height="50" as="geometry" />
        </mxCell>
        <mxCell id="MCWdgLO1iPXOzNI1tE2P-7" value="&lt;font style=&quot;font-size: 20px&quot;&gt;Password Recovery&lt;/font&gt;" style="rounded=1;whiteSpace=wrap;html=1;shadow=0;glass=0;fillColor=none;gradientColor=#ffffff;" vertex="1" parent="MCWdgLO1iPXOzNI1tE2P-1">
          <mxGeometry x="40" y="120" width="200" height="30" as="geometry" />
        </mxCell>
        <mxCell id="MCWdgLO1iPXOzNI1tE2P-8" value="&lt;font style=&quot;font-size: 20px&quot;&gt;PIN Change&lt;/font&gt;" style="rounded=1;whiteSpace=wrap;html=1;shadow=0;glass=0;fillColor=none;gradientColor=#ffffff;" vertex="1" parent="MCWdgLO1iPXOzNI1tE2P-1">
          <mxGeometry x="40" y="160" width="200" height="30" as="geometry" />
        </mxCell>
        <mxCell id="MCWdgLO1iPXOzNI1tE2P-9" value="&lt;font style=&quot;font-size: 20px&quot;&gt;Logout&lt;/font&gt;" style="rounded=1;whiteSpace=wrap;html=1;shadow=0;glass=0;fillColor=none;gradientColor=#ffffff;" vertex="1" parent="MCWdgLO1iPXOzNI1tE2P-1">
          <mxGeometry x="40" y="200" width="200" height="30" as="geometry" />
        </mxCell>
        <mxCell id="MCWdgLO1iPXOzNI1tE2P-10" value="&lt;font style=&quot;font-size: 20px&quot;&gt;Create New Account&lt;br&gt;&lt;/font&gt;" style="rounded=1;whiteSpace=wrap;html=1;shadow=0;glass=0;fillColor=none;" vertex="1" parent="MCWdgLO1iPXOzNI1tE2P-1">
          <mxGeometry x="40" y="320" width="210" height="260" as="geometry" />
        </mxCell>
        <mxCell id="MCWdgLO1iPXOzNI1tE2P-12" value="&lt;font style=&quot;font-size: 20px&quot;&gt;&lt;i&gt;&lt;b&gt;Date Picker&lt;/b&gt;&lt;/i&gt;&lt;/font&gt;" style="rounded=1;whiteSpace=wrap;html=1;shadow=0;glass=0;fillColor=none;gradientColor=#ffffff;" vertex="1" parent="MCWdgLO1iPXOzNI1tE2P-1">
          <mxGeometry x="280" y="450" width="320" height="50" as="geometry" />
        </mxCell>
        <mxCell id="MCWdgLO1iPXOzNI1tE2P-13" value="&lt;font style=&quot;font-size: 15px&quot;&gt;Duplicate Account&lt;/font&gt;" style="shape=parallelogram;perimeter=parallelogramPerimeter;whiteSpace=wrap;html=1;fixedSize=1;rounded=1;shadow=0;fillColor=none;gradientColor=#ffffff;glass=0;" vertex="1" parent="MCWdgLO1iPXOzNI1tE2P-1">
          <mxGeometry x="660" y="325" width="160" height="60" as="geometry" />
        </mxCell>
        <mxCell id="MCWdgLO1iPXOzNI1tE2P-17" value="" style="endArrow=none;html=1;strokeColor=#FF0000;" edge="1" parent="MCWdgLO1iPXOzNI1tE2P-1">
          <mxGeometry width="50" height="50" relative="1" as="geometry">
            <mxPoint x="690" y="410" as="sourcePoint" />
            <mxPoint x="810" y="290" as="targetPoint" />
          </mxGeometry>
        </mxCell>
        <mxCell id="MCWdgLO1iPXOzNI1tE2P-18" value="" style="endArrow=none;html=1;strokeColor=#FF0000;" edge="1" parent="MCWdgLO1iPXOzNI1tE2P-1">
          <mxGeometry width="50" height="50" relative="1" as="geometry">
            <mxPoint x="675" y="300" as="sourcePoint" />
            <mxPoint x="805" y="390" as="targetPoint" />
          </mxGeometry>
        </mxCell>
        <mxCell id="MCWdgLO1iPXOzNI1tE2P-20" value="&lt;font style=&quot;font-size: 15px&quot;&gt;Invalid Input&lt;br&gt;&lt;/font&gt;" style="shape=parallelogram;perimeter=parallelogramPerimeter;whiteSpace=wrap;html=1;fixedSize=1;rounded=1;shadow=0;fillColor=none;gradientColor=#ffffff;glass=0;" vertex="1" parent="MCWdgLO1iPXOzNI1tE2P-1">
          <mxGeometry x="650" y="415" width="160" height="25" as="geometry" />
        </mxCell>
        <mxCell id="MCWdgLO1iPXOzNI1tE2P-21" value="" style="endArrow=none;html=1;strokeColor=#FF0000;" edge="1" parent="MCWdgLO1iPXOzNI1tE2P-1">
          <mxGeometry width="50" height="50" relative="1" as="geometry">
            <mxPoint x="720" y="410" as="sourcePoint" />
            <mxPoint x="770" y="450" as="targetPoint" />
          </mxGeometry>
        </mxCell>
        <mxCell id="MCWdgLO1iPXOzNI1tE2P-22" value="" style="endArrow=none;html=1;strokeColor=#FF0000;" edge="1" parent="MCWdgLO1iPXOzNI1tE2P-1">
          <mxGeometry width="50" height="50" relative="1" as="geometry">
            <mxPoint x="700" y="450" as="sourcePoint" />
            <mxPoint x="770" y="400" as="targetPoint" />
          </mxGeometry>
        </mxCell>
      </root>
    </mxGraphModel>
  </diagram>
  <diagram id="ae22o531-B_NpIBhE5pf" name="Auth">
    <mxGraphModel dx="1038" dy="588" grid="1" gridSize="10" guides="1" tooltips="1" connect="1" arrows="1" fold="1" page="1" pageScale="1" pageWidth="850" pageHeight="1100" math="0" shadow="0">
      <root>
        <mxCell id="0" />
        <mxCell id="1" parent="0" />
        <mxCell id="Li3oyaO3AYFAAMPyQhSw-8" value="" style="rounded=0;whiteSpace=wrap;html=1;shadow=0;glass=0;fillColor=none;" parent="1" vertex="1">
          <mxGeometry x="440" width="410" height="700" as="geometry" />
        </mxCell>
        <mxCell id="Li3oyaO3AYFAAMPyQhSw-9" value="" style="rounded=0;whiteSpace=wrap;html=1;shadow=0;glass=0;fillColor=none;" parent="1" vertex="1">
          <mxGeometry width="400" height="320" as="geometry" />
        </mxCell>
        <mxCell id="Li3oyaO3AYFAAMPyQhSw-10" value="Account No." style="rounded=1;whiteSpace=wrap;html=1;shadow=0;glass=0;fillColor=none;gradientColor=#ffffff;align=left;" parent="1" vertex="1">
          <mxGeometry x="40" y="40" width="320" height="40" as="geometry" />
        </mxCell>
        <mxCell id="Li3oyaO3AYFAAMPyQhSw-11" value="PIN" style="rounded=1;whiteSpace=wrap;html=1;shadow=0;glass=0;fillColor=none;gradientColor=#ffffff;align=left;" parent="1" vertex="1">
          <mxGeometry x="40" y="90" width="320" height="40" as="geometry" />
        </mxCell>
        <mxCell id="Li3oyaO3AYFAAMPyQhSw-12" value="Login" style="rounded=1;whiteSpace=wrap;html=1;shadow=0;glass=0;fillColor=none;" parent="1" vertex="1">
          <mxGeometry x="120" y="190" width="160" height="40" as="geometry" />
        </mxCell>
        <mxCell id="Li3oyaO3AYFAAMPyQhSw-13" value="Create Account" style="rounded=1;whiteSpace=wrap;html=1;shadow=0;glass=0;fillColor=#dae8fc;strokeColor=#6c8ebf;gradientColor=#7ea6e0;" parent="1" vertex="1">
          <mxGeometry x="120" y="240" width="160" height="40" as="geometry" />
        </mxCell>
        <mxCell id="Li3oyaO3AYFAAMPyQhSw-14" value="&lt;b&gt;Forgot Password?&lt;/b&gt;" style="text;html=1;strokeColor=none;fillColor=none;align=center;verticalAlign=middle;whiteSpace=wrap;rounded=0;shadow=0;glass=0;" parent="1" vertex="1">
          <mxGeometry x="250" y="150" width="110" height="20" as="geometry" />
        </mxCell>
        <mxCell id="Li3oyaO3AYFAAMPyQhSw-15" value="&lt;font style=&quot;font-size: 20px&quot; color=&quot;#7f00ff&quot;&gt;5165115&lt;/font&gt;" style="rounded=1;whiteSpace=wrap;html=1;shadow=0;glass=0;fillColor=none;gradientColor=#ffffff;align=left;" parent="1" vertex="1">
          <mxGeometry x="480" y="100" width="320" height="40" as="geometry" />
        </mxCell>
        <mxCell id="Li3oyaO3AYFAAMPyQhSw-16" value="&lt;font style=&quot;font-size: 30px&quot;&gt;Register&lt;/font&gt;" style="text;html=1;strokeColor=none;fillColor=none;align=center;verticalAlign=middle;whiteSpace=wrap;rounded=0;shadow=0;glass=0;" parent="1" vertex="1">
          <mxGeometry x="575" y="40" width="130" height="20" as="geometry" />
        </mxCell>
        <mxCell id="Li3oyaO3AYFAAMPyQhSw-17" value="password" style="rounded=1;whiteSpace=wrap;html=1;shadow=0;glass=0;fillColor=none;gradientColor=#ffffff;align=left;" parent="1" vertex="1">
          <mxGeometry x="480" y="150" width="320" height="40" as="geometry" />
        </mxCell>
        <mxCell id="Li3oyaO3AYFAAMPyQhSw-18" value="Date of Birth" style="rounded=1;whiteSpace=wrap;html=1;shadow=0;glass=0;fillColor=none;gradientColor=#ffffff;align=left;" parent="1" vertex="1">
          <mxGeometry x="480" y="200" width="320" height="40" as="geometry" />
        </mxCell>
        <mxCell id="Li3oyaO3AYFAAMPyQhSw-19" value="Security Questions" style="rounded=1;whiteSpace=wrap;html=1;shadow=0;glass=0;fillColor=none;gradientColor=#ffffff;align=left;" parent="1" vertex="1">
          <mxGeometry x="480" y="250" width="320" height="40" as="geometry" />
        </mxCell>
        <mxCell id="Li3oyaO3AYFAAMPyQhSw-23" value="" style="endArrow=classic;html=1;exitX=0.437;exitY=1;exitDx=0;exitDy=0;exitPerimeter=0;entryX=-0.009;entryY=0.673;entryDx=0;entryDy=0;entryPerimeter=0;" parent="1" source="Li3oyaO3AYFAAMPyQhSw-9" target="Li3oyaO3AYFAAMPyQhSw-8" edge="1">
          <mxGeometry width="50" height="50" relative="1" as="geometry">
            <mxPoint x="400" y="440" as="sourcePoint" />
            <mxPoint x="430" y="480" as="targetPoint" />
            <Array as="points">
              <mxPoint x="175" y="470" />
            </Array>
          </mxGeometry>
        </mxCell>
        <mxCell id="Li3oyaO3AYFAAMPyQhSw-24" value="xyz" style="rounded=1;whiteSpace=wrap;html=1;shadow=0;glass=0;fillColor=none;gradientColor=#ffffff;align=left;" parent="1" vertex="1">
          <mxGeometry x="480" y="300" width="320" height="40" as="geometry" />
        </mxCell>
        <mxCell id="Li3oyaO3AYFAAMPyQhSw-25" value="xyz" style="rounded=1;whiteSpace=wrap;html=1;shadow=0;glass=0;fillColor=none;gradientColor=#ffffff;align=left;" parent="1" vertex="1">
          <mxGeometry x="480" y="350" width="320" height="40" as="geometry" />
        </mxCell>
        <mxCell id="Li3oyaO3AYFAAMPyQhSw-26" value="xyz" style="rounded=1;whiteSpace=wrap;html=1;shadow=0;glass=0;fillColor=none;gradientColor=#ffffff;align=left;" parent="1" vertex="1">
          <mxGeometry x="480" y="400" width="320" height="40" as="geometry" />
        </mxCell>
        <mxCell id="Li3oyaO3AYFAAMPyQhSw-27" value="xyz" style="rounded=1;whiteSpace=wrap;html=1;shadow=0;glass=0;fillColor=none;gradientColor=#ffffff;align=left;" parent="1" vertex="1">
          <mxGeometry x="480" y="450" width="320" height="40" as="geometry" />
        </mxCell>
        <mxCell id="Li3oyaO3AYFAAMPyQhSw-28" value="xyz" style="rounded=1;whiteSpace=wrap;html=1;shadow=0;glass=0;fillColor=none;gradientColor=#ffffff;align=left;" parent="1" vertex="1">
          <mxGeometry x="480" y="500" width="320" height="40" as="geometry" />
        </mxCell>
        <mxCell id="Li3oyaO3AYFAAMPyQhSw-29" value="&lt;font style=&quot;font-size: 20px&quot;&gt;Create Account&lt;/font&gt;" style="rounded=1;whiteSpace=wrap;html=1;shadow=0;glass=0;fillColor=none;gradientColor=#ffffff;align=center;" parent="1" vertex="1">
          <mxGeometry x="560" y="620" width="160" height="40" as="geometry" />
        </mxCell>
        <mxCell id="Li3oyaO3AYFAAMPyQhSw-30" value="" style="rounded=0;whiteSpace=wrap;html=1;shadow=0;glass=0;fillColor=none;" parent="1" vertex="1">
          <mxGeometry y="550" width="400" height="370" as="geometry" />
        </mxCell>
        <mxCell id="Li3oyaO3AYFAAMPyQhSw-34" value="Account No." style="rounded=1;whiteSpace=wrap;html=1;shadow=0;glass=0;fillColor=none;gradientColor=#ffffff;align=left;" parent="1" vertex="1">
          <mxGeometry x="40" y="640" width="320" height="40" as="geometry" />
        </mxCell>
        <mxCell id="Li3oyaO3AYFAAMPyQhSw-35" value="Security Question" style="rounded=1;whiteSpace=wrap;html=1;shadow=0;glass=0;fillColor=none;gradientColor=#ffffff;align=left;" parent="1" vertex="1">
          <mxGeometry x="40" y="700" width="320" height="40" as="geometry" />
        </mxCell>
        <mxCell id="Li3oyaO3AYFAAMPyQhSw-36" value="Answer" style="rounded=1;whiteSpace=wrap;html=1;shadow=0;glass=0;fillColor=none;gradientColor=#ffffff;align=left;" parent="1" vertex="1">
          <mxGeometry x="40" y="760" width="320" height="40" as="geometry" />
        </mxCell>
        <mxCell id="Li3oyaO3AYFAAMPyQhSw-37" value="&lt;font style=&quot;font-size: 20px&quot;&gt;&lt;b&gt;Recover Password&lt;/b&gt;&lt;/font&gt;" style="rounded=1;whiteSpace=wrap;html=1;shadow=0;glass=0;fillColor=none;gradientColor=#ffffff;align=center;" parent="1" vertex="1">
          <mxGeometry x="105" y="830" width="190" height="40" as="geometry" />
        </mxCell>
        <mxCell id="Li3oyaO3AYFAAMPyQhSw-38" value="&lt;font style=&quot;font-size: 30px&quot;&gt;&lt;b&gt;&lt;i&gt;Password Recovery&lt;/i&gt;&lt;/b&gt;&lt;/font&gt;" style="text;html=1;strokeColor=none;fillColor=none;align=center;verticalAlign=middle;whiteSpace=wrap;rounded=0;shadow=0;glass=0;" parent="1" vertex="1">
          <mxGeometry x="40" y="590" width="310" height="20" as="geometry" />
        </mxCell>
      </root>
    </mxGraphModel>
  </diagram>
</mxfile>
